<svg width="19" height="19" viewBox="0 0 19 19" fill="none" xmlns="http://www.w3.org/2000/svg">
<g opacity="0.5">
<path fill-rule="evenodd" clip-rule="evenodd" d="M8.75298 0.989746C10.2079 0.989738 11.3603 0.989722 12.2621 1.11098C13.1903 1.23576 13.9416 1.49869 14.5341 2.09114C15.1265 2.6836 15.3894 3.43486 15.5142 4.36302C15.6354 5.26489 15.6354 6.41729 15.6354 7.87217V9.39693C14.8785 8.95906 13.9998 8.7085 13.0625 8.7085C10.2205 8.7085 7.91667 11.0123 7.91667 13.8543C7.91667 15.5593 8.74586 17.0706 10.023 18.0069C9.62801 18.0106 9.20534 18.0106 8.75362 18.0106C7.29873 18.0106 6.0564 18.0106 5.15453 17.8894C4.22636 17.7645 3.47511 17.5016 2.88265 16.9092C2.2902 16.3167 2.02727 15.5654 1.90249 14.6373C1.78123 13.7354 1.78124 12.5831 1.78125 11.1281V7.87216C1.78124 6.41727 1.78123 5.2649 1.90249 4.36302C2.02727 3.43486 2.2902 2.6836 2.88265 2.09114C3.47511 1.49869 4.22636 1.23576 5.15453 1.11098C6.0564 0.989722 7.29811 0.989738 8.75298 0.989746ZM5.54167 4.94808C5.21375 4.94808 4.94792 5.21391 4.94792 5.54183C4.94792 5.86975 5.21375 6.13558 5.54167 6.13558H11.875C12.2029 6.13558 12.4688 5.86975 12.4688 5.54183C12.4688 5.21391 12.2029 4.94808 11.875 4.94808H5.54167ZM5.54167 8.11475C5.21375 8.11475 4.94792 8.38059 4.94792 8.7085C4.94792 9.0364 5.21375 9.30225 5.54167 9.30225H9.10417C9.43208 9.30225 9.69792 9.0364 9.69792 8.7085C9.69792 8.38059 9.43208 8.11475 9.10417 8.11475H5.54167Z" fill="#343434"/>
<path fill-rule="evenodd" clip-rule="evenodd" d="M13.0625 9.69775C10.7671 9.69775 8.90625 11.5586 8.90625 13.854C8.90625 16.1494 10.7671 18.0103 13.0625 18.0103C15.3579 18.0103 17.2188 16.1494 17.2188 13.854C17.2188 11.5586 15.3579 9.69775 13.0625 9.69775ZM13.6562 12.2707C13.6562 11.9428 13.3904 11.6769 13.0625 11.6769C12.7346 11.6769 12.4688 11.9428 12.4688 12.2707V14.2103C12.4688 14.4593 12.6242 14.6819 12.8581 14.7677L14.0456 15.2032C14.3535 15.3161 14.6946 15.158 14.8075 14.8501C14.9204 14.5422 14.7623 14.2011 14.4544 14.0882L13.6562 13.7956V12.2707Z" fill="#343434"/>
</g>
</svg>
