<svg width="19" height="19" viewBox="0 0 19 19" fill="none" xmlns="http://www.w3.org/2000/svg">
<path fill-rule="evenodd" clip-rule="evenodd" d="M9.50016 0.989594C4.79999 0.989594 0.989746 4.79984 0.989746 9.50001C0.989746 14.2002 4.79999 18.0104 9.50016 18.0104C14.2004 18.0104 18.0106 14.2002 18.0106 9.50001C18.0106 4.79984 14.2004 0.989594 9.50016 0.989594ZM10.4439 6.21768L9.90217 5.36651C9.71494 5.07229 9.28538 5.07229 9.09815 5.36651L8.5565 6.21768C7.95744 7.15895 7.1591 7.95729 6.21783 8.55626L5.36666 9.098C5.07244 9.28523 5.07244 9.71479 5.36666 9.90202L6.21783 10.4437C7.1591 11.0427 7.95744 11.841 8.55642 12.7823L9.09815 13.6335C9.28538 13.9277 9.71494 13.9277 9.90217 13.6335L10.4438 12.7823C11.0429 11.841 11.8412 11.0427 12.7825 10.4438L13.6337 9.90202C13.9279 9.71479 13.9279 9.28523 13.6337 9.098L12.7825 8.55634C11.8412 7.95729 11.0429 7.15895 10.4439 6.21768Z" fill="#989898"/>
</svg>
