<svg width="15" height="15" viewBox="0 0 15 15" fill="none" xmlns="http://www.w3.org/2000/svg">
<path d="M11.5391 2.5H5.13331M11.5391 2.5L10.8986 10.625H5.625L5.45361 6.875M11.5391 2.5H12.5M5.13331 2.5H3.97262C3.1841 2.5 2.78984 2.5 2.59773 2.75192C2.40562 3.00384 2.51891 3.37229 2.74549 4.10919L2.91741 4.66831C3.06268 5.14076 3.13531 5.37697 3.28866 5.56522C3.442 5.75347 3.66147 5.87583 4.10041 6.12055L5.45361 6.875M5.13331 2.5L5.45361 6.875" stroke="black" stroke-width="0.882353" stroke-linecap="round" stroke-linejoin="round"/>
<path d="M9.375 1.25H7.5" stroke="black" stroke-width="0.882353" stroke-linecap="round" stroke-linejoin="round"/>
<path d="M10.9167 10.625H5.65799C5.47509 11.2497 4.66027 12.9423 5.15974 13.5213C5.35709 13.75 5.72827 13.75 6.47062 13.75H10.3328C11.1424 13.75 11.5472 13.75 11.7444 13.4981C12.2396 12.8657 11.1858 11.2283 10.9167 10.625Z" stroke="black" stroke-width="0.882353" stroke-linecap="round" stroke-linejoin="round"/>
<path d="M11.25 5H9.6875M10.9375 6.875H9.6875M10.9375 8.75H9.6875" stroke="black" stroke-width="0.882353" stroke-linecap="round" stroke-linejoin="round"/>
</svg>
