<svg width="20" height="20" viewBox="0 0 20 20" fill="none" xmlns="http://www.w3.org/2000/svg">
<path fill-rule="evenodd" clip-rule="evenodd" d="M10.4489 0.161722C10.1902 -0.0537832 9.81458 -0.0539228 9.55574 0.161396L6.9543 2.32572H3.01974C2.63433 2.32572 2.32191 2.63807 2.32191 3.02339V6.95716L0.161344 9.55394C-0.0537812 9.81244 -0.0537812 10.1877 0.161344 10.4462L2.32191 13.043V16.9768C2.32191 17.3621 2.63433 17.6744 3.01974 17.6744H6.95431L9.55574 19.8386C9.81449 20.0539 10.1901 20.0538 10.4488 19.8383L13.046 17.6744H16.9803C17.3657 17.6744 17.6781 17.3621 17.6781 16.9768V13.043L19.8387 10.4462C20.0538 10.1877 20.0538 9.81244 19.8387 9.55394L17.6781 6.95716V3.02339C17.6781 2.63807 17.3657 2.32572 16.9803 2.32572H13.046L10.4489 0.161722ZM10.0022 6.04658C7.81821 6.04658 6.04779 7.8166 6.04779 10.0001C6.04779 12.1835 7.81821 13.9535 10.0022 13.9535C12.1861 13.9535 13.9565 12.1835 13.9565 10.0001C13.9565 7.8166 12.1861 6.04658 10.0022 6.04658Z" fill="black"/>
</svg>
