<svg width="15" height="18" viewBox="0 0 15 18" fill="none" xmlns="http://www.w3.org/2000/svg">
<path fill-rule="evenodd" clip-rule="evenodd" d="M9.00442 4.34507e-07H5.57892C4.43958 -1.62322e-05 3.52064 -3.28819e-05 2.7978 0.0980338C2.04668 0.199934 1.41468 0.418009 0.91331 0.923909C0.412719 1.42903 0.197635 2.06446 0.09701 2.81968C-2.33327e-05 3.54794 -1.5013e-05 4.4742 1.65366e-06 5.62478V14.5423C-3.16797e-05 15.1329 -6.50808e-05 15.6415 0.0540849 16.0308C0.109602 16.4298 0.243727 16.8839 0.671543 17.1595C1.30363 17.5666 2.00418 17.2847 2.39758 17.0789C2.62287 16.9611 3.25849 16.5304 3.43413 16.4097C3.66148 16.2663 3.78733 16.19 3.88159 16.1458C3.89967 16.1263 3.95933 16.1005 4.05338 16.1523C4.14854 16.1999 4.27013 16.2757 4.48255 16.4097L6.09725 17.428C6.29275 17.5513 6.47792 17.6682 6.64492 17.7506C6.83133 17.8426 7.04225 17.9167 7.29167 17.9167C7.54108 17.9167 7.752 17.8426 7.93842 17.7506C8.10534 17.6682 8.2905 17.5514 8.48592 17.4282L10.1008 16.4097C10.3282 16.2663 10.454 16.19 10.5483 16.1458C10.5692 16.128 10.6328 16.1044 10.72 16.1523C10.7793 16.1819 11.0128 16.3353 11.2321 16.4791C11.3652 16.5664 11.4929 16.6502 11.5732 16.7009C11.7488 16.8216 11.9605 16.9611 12.1858 17.0789C12.5792 17.2847 13.2798 17.5666 13.9118 17.1595C14.3396 16.8839 14.4738 16.4298 14.5293 16.0308C14.5834 15.6415 14.5833 15.1329 14.5833 14.5423V5.62483C14.5833 4.47423 14.5833 3.54795 14.4863 2.81968C14.3857 2.06446 14.1706 1.42903 13.67 0.923909C13.1687 0.418009 12.5367 0.199934 11.7855 0.0980338C11.0627 -3.28819e-05 10.1438 -1.62322e-05 9.00442 4.34507e-07ZM7.29167 8.125C7.29167 8.58525 6.91858 8.95833 6.45833 8.95833H3.95833C3.4981 8.95833 3.125 8.58525 3.125 8.125C3.125 7.66475 3.4981 7.29167 3.95833 7.29167H6.45833C6.91858 7.29167 7.29167 7.66475 7.29167 8.125ZM8.95833 5.625C9.41858 5.625 9.79167 5.25191 9.79167 4.79167C9.79167 4.33143 9.41858 3.95833 8.95833 3.95833H3.95833C3.4981 3.95833 3.125 4.33143 3.125 4.79167C3.125 5.25191 3.4981 5.625 3.95833 5.625H8.95833Z" fill="#989898"/>
</svg>
