<svg width="17" height="14" viewBox="0 0 17 14" fill="none" xmlns="http://www.w3.org/2000/svg">
<path d="M2.69585 9.93197C2.79597 9.83184 2.93364 9.77344 3.07966 9.77344H16.3211C16.563 9.77344 16.684 10.0655 16.513 10.2365L13.8972 12.8523C13.7971 12.9524 13.6594 13.0108 13.5134 13.0108H0.27201C0.0300438 13.0108 -0.0909395 12.7188 0.0801059 12.5477L2.69585 9.93197Z" fill="#474747"/>
<path d="M2.69585 0.15853C2.80014 0.0584057 2.93781 0 3.07966 0H16.3211C16.563 0 16.684 0.292029 16.513 0.463074L13.8972 3.07882C13.7971 3.17894 13.6594 3.23735 13.5134 3.23735H0.27201C0.0300438 3.23735 -0.0909395 2.94532 0.0801059 2.77427L2.69585 0.15853Z" fill="#474747"/>
<path d="M13.8972 5.01107C13.7971 4.91094 13.6594 4.85254 13.5134 4.85254H0.27201C0.0300438 4.85254 -0.0909395 5.14457 0.0801059 5.31561L2.69585 7.93136C2.79597 8.03148 2.93364 8.08989 3.07966 8.08989H16.3211C16.563 8.08989 16.684 7.79786 16.513 7.62681L13.8972 5.01107Z" fill="#474747"/>
</svg>
