<svg width="15" height="15" viewBox="0 0 15 15" fill="none" xmlns="http://www.w3.org/2000/svg">
<path fill-rule="evenodd" clip-rule="evenodd" d="M7.5 4.375C7.84519 4.375 8.125 4.65483 8.125 5V7.24113L8.87944 7.99556C9.1235 8.23962 9.1235 8.63538 8.87944 8.87944C8.63537 9.1235 8.23963 9.1235 7.99556 8.87944L7.05806 7.94194C6.94088 7.82475 6.875 7.66575 6.875 7.5V5C6.875 4.65483 7.15481 4.375 7.5 4.375Z" fill="black"/>
<path d="M10.3369 9.34863C10.4168 9.35371 10.5113 9.38016 10.6221 9.42383C10.838 9.50903 11.1256 9.66386 11.5039 9.86816L12.2637 10.2773C12.7574 10.544 13.1315 10.7484 13.3828 10.9395C13.6424 11.1368 13.7773 11.3253 13.7773 11.5625C13.7773 11.7997 13.6424 11.9882 13.3828 12.1855C13.1315 12.3766 12.7573 12.5801 12.2637 12.8467L11.5039 13.2568C11.1257 13.4611 10.838 13.616 10.6221 13.7012C10.5113 13.7448 10.4168 13.7713 10.3369 13.7764C10.2554 13.7816 10.1881 13.7643 10.1348 13.7207C10.0121 13.6203 9.9672 13.4805 9.97266 13.3232V13.3223C9.97821 13.1674 10.032 12.9958 10.1045 12.8281C10.1774 12.6596 10.2711 12.4926 10.3564 12.3467V12.3457C10.3907 12.2869 10.4207 12.2368 10.4473 12.1924C10.4904 12.1201 10.5324 12.0507 10.5635 11.9902V11.9893C10.6519 11.8168 10.6937 11.6874 10.6934 11.5605V11.5596L10.6855 11.4639C10.6693 11.3667 10.6288 11.2632 10.5635 11.1357V11.1348C10.5324 11.0743 10.4904 11.0049 10.4473 10.9326C10.4207 10.8882 10.3907 10.838 10.3564 10.7793V10.7783L10.2256 10.5459C10.1827 10.4649 10.1409 10.381 10.1045 10.2969C10.0319 10.129 9.97812 9.9568 9.97266 9.80176C9.96717 9.64439 10.0118 9.50375 10.1348 9.40332C10.1747 9.37071 10.2227 9.35331 10.2783 9.34863H10.3369Z" stroke="black" stroke-width="0.882353"/>
<path fill-rule="evenodd" clip-rule="evenodd" d="M7.5 2.00284C4.464 2.00284 2.00284 4.464 2.00284 7.5C2.00284 10.536 4.464 12.9972 7.5 12.9972C7.69087 12.9972 7.87931 12.9874 8.06481 12.9686C8.40037 12.9343 8.70019 13.1787 8.73437 13.5142C8.76862 13.8499 8.52425 14.1496 8.18869 14.1838C7.96206 14.2069 7.73231 14.2187 7.5 14.2187C3.78934 14.2187 0.78125 11.2107 0.78125 7.5C0.78125 3.78934 3.78934 0.78125 7.5 0.78125C11.2107 0.78125 14.2187 3.78934 14.2187 7.5C14.2187 7.95937 14.1726 8.40862 14.0844 8.84312C14.0172 9.17369 13.6949 9.38731 13.3642 9.32019C13.0337 9.25306 12.8201 8.93069 12.8872 8.60006C12.9592 8.24512 12.9972 7.87731 12.9972 7.5C12.9972 4.464 10.536 2.00284 7.5 2.00284Z" fill="black"/>
</svg>
