<svg width="18" height="15" viewBox="0 0 18 15" fill="none" xmlns="http://www.w3.org/2000/svg">
<path fill-rule="evenodd" clip-rule="evenodd" d="M10.248 1.46975e-07C11.7805 -8.18636e-06 12.984 -1.66148e-05 13.9328 0.107167C14.9013 0.216567 15.6867 0.444683 16.3395 0.960233C16.5349 1.11457 16.7161 1.28504 16.8808 1.46983C17.436 2.09251 17.6839 2.84724 17.802 3.77321C17.8156 3.87975 17.8223 3.93302 17.8102 3.97982C17.7906 4.05461 17.7332 4.11979 17.6615 4.14862C17.6167 4.16667 17.5605 4.16667 17.4482 4.16667H0.468533C0.356225 4.16667 0.300059 4.16667 0.255184 4.14862C0.183459 4.11979 0.126067 4.05461 0.106534 3.97982C0.0943168 3.93302 0.101108 3.87975 0.1147 3.77321C0.232775 2.84724 0.480683 2.09251 1.03583 1.46983C1.20058 1.28504 1.38177 1.11457 1.5772 0.960233C2.23002 0.444683 3.01536 0.216567 3.98382 0.107167C4.93265 -1.66148e-05 6.13623 -8.18636e-06 7.66875 1.46975e-07H10.248ZM17.9167 7.33558C17.9167 8.77233 17.9167 9.91058 17.802 10.8102C17.6839 11.7361 17.436 12.4908 16.8808 13.1135C16.7161 13.2983 16.5349 13.4688 16.3395 13.6231C15.6867 14.1387 14.9013 14.3668 13.9328 14.4762C12.984 14.5833 11.7805 14.5833 10.2479 14.5833H7.66875C6.13621 14.5833 4.93264 14.5833 3.98382 14.4762C3.01535 14.3668 2.23 14.1387 1.57719 13.6231C1.38176 13.4688 1.20057 13.2983 1.03582 13.1135C0.480675 12.4908 0.232767 11.7361 0.114692 10.8102C-1.65403e-05 9.91058 -8.19128e-06 8.77225 1.42053e-07 7.33558V7.24775C1.42053e-07 6.76792 -8.15877e-06 6.32142 0.00426684 5.90592C0.00662517 5.67617 0.00780853 5.5613 0.0808669 5.48898C0.153934 5.41667 0.269675 5.41667 0.501158 5.41667H17.4155C17.647 5.41667 17.7627 5.41667 17.8358 5.48898C17.9088 5.5613 17.9101 5.67617 17.9124 5.90592C17.9167 6.32125 17.9167 6.76767 17.9167 7.24725V7.33558ZM7.5 10.625C7.5 10.2798 7.77983 10 8.125 10H9.375C9.72017 10 10 10.2798 10 10.625C10 10.9702 9.72017 11.25 9.375 11.25H8.125C7.77983 11.25 7.5 10.9702 7.5 10.625ZM11.875 10C11.5298 10 11.25 10.2798 11.25 10.625C11.25 10.9702 11.5298 11.25 11.875 11.25H14.7917C15.1368 11.25 15.4167 10.9702 15.4167 10.625C15.4167 10.2798 15.1368 10 14.7917 10H11.875Z" fill="#343434"/>
</svg>
